<?xml version="1.0" encoding="utf-8"?>
<!-- Generator: Adobe Illustrator 19.0.0, SVG Export Plug-In . SVG Version: 6.00 Build 0)  -->
<svg version="1.1" id="Layer_1" xmlns="http://www.w3.org/2000/svg" xmlns:xlink="http://www.w3.org/1999/xlink" x="0px" y="0px"
	 viewBox="-159 89 384 384" style="enable-background:new -159 89 384 384;" xml:space="preserve">
<path d="M118,153v-29c0-19.1-14.5-35-34.5-35H-17.6C-37.5,89-52,104.9-52,124v29h-91v32h9.2c0,0,5.4,0.6,8.2,3.4
	c2.8,2.8,3.9,9,3.9,9l19,241.7c1.5,29.4,1.5,33.9,36,33.9h199.4c34.5,0,34.5-4.4,36-33.8l19-241.6c0,0,1.1-6.3,3.9-9.1
	s8.2-3.4,8.2-3.4h9.2v-32L118,153L118,153z M-31,124c0-9.6,7.8-15,17.7-15h91.7c9.9,0,18.6,5.5,18.6,15v29H-31V124z M-39.5,409
	l-10.3-192h20.3L-19,409H-39.5z M44.1,409h-22V217h22V409z M105.7,409H85.3l10.5-192h20.3L105.7,409z"/>
</svg>
